<svg width="64" height="64" viewBox="0 0 64 64" fill="none" xmlns="http://www.w3.org/2000/svg">
<mask id="mask0_3523_158" style="mask-type:alpha" maskUnits="userSpaceOnUse" x="4" y="0" width="57" height="64">
<path d="M28 1.97998C30.4799 0.550058 33.5201 0.550058 36 1.97998L56 13.52C58.48 14.95 60 17.5907 60 20.4507V25.064L60.0039 25.0737L59.9951 28.3774C59.9966 28.4314 60.001 28.4854 60.001 28.5396V43.5483C60.001 46.4083 58.481 49.049 56.001 50.479L36.001 62.019C33.521 63.449 30.4809 63.449 28.001 62.019L24.0254 59.7173L23.9961 59.7144L21.0254 57.9888C22.4075 58.7926 24.0352 58.9876 25.5439 58.5835L25.5498 58.5815C24.0365 58.983 22.4049 58.7826 21.0098 57.98L8 50.48C5.53002 49.05 4.00002 46.41 4 43.5601V20.4497C4.0001 17.5898 5.52009 14.95 8 13.52L12 11.2104L14.9805 9.50049C14.9904 9.49052 14.99 9.47998 15 9.47998L28 1.97998ZM33.6836 53.9536C32.5867 54.2921 31.4133 54.2921 30.3164 53.9536C31.4135 54.2944 32.5865 54.2944 33.6836 53.9536ZM12.0127 40.6304C12.1389 42.5227 13.2009 44.2434 14.8604 45.1997L18.5459 47.3267L14.8574 45.1968C13.3103 44.3033 12.2823 42.7475 12.0498 41.0044L12.0127 40.6304ZM51.9873 40.6284C51.8613 42.522 50.8002 44.2395 49.1426 45.1968L45.459 47.3237L49.1396 45.1997C50.799 44.2435 51.8611 42.5227 51.9873 40.6304V40.6284ZM58.2471 24.3003C59.1531 25.2079 59.7479 26.3889 59.9355 27.6694C59.7548 26.389 59.1564 25.2092 58.2471 24.3003ZM57.9463 24.02C57.8668 23.9507 57.7856 23.8832 57.7021 23.8179C57.7855 23.8832 57.8668 23.9507 57.9463 24.02ZM57.6299 23.7622C57.5464 23.6989 57.4611 23.6378 57.374 23.5786C57.4611 23.6378 57.5465 23.6989 57.6299 23.7622ZM12.3857 21.6929C12.1358 22.3398 12 23.0357 12 23.7505V23.7515C12 23.0357 12.1357 22.3398 12.3857 21.6929ZM49.1426 18.8032C50.9105 19.8242 51.9999 21.7096 52 23.7515V23.7495C51.9999 21.7096 50.9096 19.8202 49.1396 18.8003L44.6807 16.2271L49.1426 18.8032ZM57.3164 23.5396C57.277 23.5134 57.2384 23.4857 57.1982 23.4604L57.0596 23.3804C57.1465 23.4319 57.2327 23.4841 57.3164 23.5396ZM14.8604 18.8003C14.1329 19.2195 13.523 19.7876 13.0537 20.4507C13.5223 19.7889 14.1315 19.2224 14.8574 18.8032L19.3193 16.2271L14.8604 18.8003ZM33.6836 10.0454C32.5867 9.70473 31.4133 9.70473 30.3164 10.0454C31.4132 9.70696 32.5868 9.70696 33.6836 10.0454ZM58.2471 24.3003C58.1625 24.2158 58.0752 24.1339 57.9854 24.0542C58.0751 24.1339 58.1626 24.2157 58.2471 24.3003Z" fill="url(#paint0_linear_3523_158)"/>
</mask>
<g mask="url(#mask0_3523_158)">
<path d="M49.143 18.803L34.857 10.555C33.089 9.534 30.911 9.534 29.143 10.555L14.857 18.803C13.089 19.824 12 21.71 12 23.752V40.248C12 42.29 13.089 44.176 14.857 45.197L29.143 53.445C30.911 54.466 33.089 54.466 34.857 53.445L49.143 45.197C50.911 44.176 52 42.29 52 40.248V23.752C52 21.71 50.911 19.824 49.143 18.803Z" fill="#9529C2"/>
<path d="M15 28V24C15 21.794 16.794 20 19 20C20.895 20 22.543 21.346 22.92 23.201C23.085 24.013 22.561 24.805 21.749 24.97C20.937 25.137 20.146 24.612 19.98 23.799C19.886 23.336 19.474 23 19 23C18.449 23 18 23.449 18 24V28C18 28.551 18.449 29 19 29C19.474 29 19.886 28.664 19.98 28.201C20.145 27.389 20.937 26.866 21.749 27.03C22.561 27.195 23.085 27.987 22.92 28.799C22.543 30.654 20.895 32 19 32C16.794 32 15 30.206 15 28ZM30 35C30.474 35 30.886 35.336 30.98 35.799C31.145 36.611 31.93 37.137 32.749 36.97C33.561 36.805 34.085 36.014 33.92 35.201C33.543 33.347 31.894 32 30 32C27.794 32 26 33.794 26 36V40C26 42.206 27.794 44 30 44C31.895 44 33.543 42.653 33.92 40.799C34.085 39.987 33.561 39.195 32.749 39.03C31.942 38.865 31.146 39.389 30.98 40.201C30.886 40.664 30.474 41 30 41C29.449 41 29 40.552 29 40V36C29 35.448 29.449 35 30 35ZM33.061 23.439C32.475 22.853 31.526 22.853 30.94 23.439L15.94 38.439C15.354 39.025 15.354 39.974 15.94 40.56C16.233 40.853 16.617 40.999 17.001 40.999C17.385 40.999 17.769 40.853 18.062 40.56L33.062 25.56C33.648 24.975 33.647 24.024 33.061 23.439ZM41 36.5H40V35.5C40 34.672 39.329 34 38.5 34C37.671 34 37 34.672 37 35.5V36.5H36C35.171 36.5 34.5 37.172 34.5 38C34.5 38.828 35.171 39.5 36 39.5H37V40.5C37 41.328 37.671 42 38.5 42C39.329 42 40 41.328 40 40.5V39.5H41C41.829 39.5 42.5 38.828 42.5 38C42.5 37.172 41.829 36.5 41 36.5ZM49.5 36.5H48.5V35.5C48.5 34.672 47.829 34 47 34C46.171 34 45.5 34.672 45.5 35.5V36.5H44.5C43.671 36.5 43 37.172 43 38C43 38.828 43.671 39.5 44.5 39.5H45.5V40.5C45.5 41.328 46.171 42 47 42C47.829 42 48.5 41.328 48.5 40.5V39.5H49.5C50.329 39.5 51 38.828 51 38C51 37.172 50.329 36.5 49.5 36.5Z" fill="white"/>
<path d="M57.004 23.347L49.14 18.8C50.91 19.82 52 21.71 52 23.75V40.25C52 42.29 50.91 44.18 49.14 45.2L34.86 53.44L27 57.982V57.98C25.148 59.05 22.868 59.061 21.025 57.989L23.996 59.715L24.025 59.717L28.001 62.019C30.481 63.449 33.521 63.449 36.001 62.019L56.001 50.479C58.481 49.049 60.001 46.409 60.001 43.549V28.54C60.001 26.398 58.859 24.418 57.005 23.346L57.004 23.347Z" fill="url(#paint1_linear_3523_158)"/>
<g filter="url(#filter0_d_3523_158)">
<path d="M60 25.064V20.45C60 17.59 58.48 14.95 56 13.52L36 1.98C33.52 0.550001 30.48 0.550001 28 1.98L15 9.48C14.99 9.48 14.99 9.49 14.98 9.5C13.13 10.56 12 12.54 12 14.68V23.75C12 21.71 13.09 19.82 14.86 18.8L29.14 10.56C30.91 9.53 33.09 9.53 34.86 10.56L49.14 18.8L57.198 23.46C58.934 24.553 60.002 26.456 59.995 28.51L60.004 25.074L60 25.064Z" fill="url(#paint2_linear_3523_158)"/>
</g>
<path d="M29.14 53.44L14.86 45.2C13.09 44.18 12 42.29 12 40.25V14.68C12 12.54 13.13 10.56 14.98 9.5L12 11.21L8 13.52C5.52 14.95 4 17.59 4 20.45V43.56C4 46.41 5.53 49.05 8 50.48L21.01 57.98C22.87 59.05 25.15 59.05 27.01 57.98L34.86 53.44C33.09 54.47 30.91 54.47 29.14 53.44Z" fill="#D373FC"/>
</g>
<defs>
<filter id="filter0_d_3523_158" x="6.66667" y="-3.0925" width="58.6707" height="38.2692" filterUnits="userSpaceOnUse" color-interpolation-filters="sRGB">
<feFlood flood-opacity="0" result="BackgroundImageFix"/>
<feColorMatrix in="SourceAlpha" type="matrix" values="0 0 0 0 0 0 0 0 0 0 0 0 0 0 0 0 0 0 127 0" result="hardAlpha"/>
<feOffset dy="1.33333"/>
<feGaussianBlur stdDeviation="2.66667"/>
<feColorMatrix type="matrix" values="0 0 0 0 0 0 0 0 0 0 0 0 0 0 0 0 0 0 0.32 0"/>
<feBlend mode="normal" in2="BackgroundImageFix" result="effect1_dropShadow_3523_158"/>
<feBlend mode="normal" in="SourceGraphic" in2="effect1_dropShadow_3523_158" result="shape"/>
</filter>
<linearGradient id="paint0_linear_3523_158" x1="16.0003" y1="3.78307" x2="62.2721" y2="42.9986" gradientUnits="userSpaceOnUse">
<stop stop-color="#D6CDF5"/>
<stop offset="1" stop-color="#B9AAEE"/>
</linearGradient>
<linearGradient id="paint1_linear_3523_158" x1="34" y1="63" x2="63" y2="27.5" gradientUnits="userSpaceOnUse">
<stop stop-color="#A931D8"/>
<stop offset="1" stop-color="#BB45EA"/>
</linearGradient>
<linearGradient id="paint2_linear_3523_158" x1="16.0003" y1="3.78284" x2="62.2719" y2="42.9985" gradientUnits="userSpaceOnUse">
<stop stop-color="#EBC7FA"/>
<stop offset="1" stop-color="#E4A7FE"/>
</linearGradient>
</defs>
</svg>
