<svg width="128" height="128" viewBox="0 0 128 128" fill="none" xmlns="http://www.w3.org/2000/svg">
<mask id="mask0_3524_125" style="mask-type:alpha" maskUnits="userSpaceOnUse" x="8" y="1" width="113" height="126">
<path d="M56 3.96059C60.96 1.10059 67.04 1.10059 72 3.96059L112 27.0407C116.96 29.9006 120 35.1802 120 40.9V50.1286L120.008 50.1481L119.991 56.6012C119.998 56.7602 120.002 56.9198 120.002 57.0797V87.0973C120.002 92.8173 116.962 98.0977 112.002 100.958L72.002 124.038C67.042 126.898 60.9619 126.898 56.002 124.038L48.0498 119.433L47.9922 119.429L42.0498 115.977C44.8168 117.587 48.0764 117.975 51.0967 117.164C48.071 117.966 44.8089 117.564 42.0195 115.96L16 100.96C11.0601 98.0996 8 92.8197 8 87.1198V40.9C8 35.18 11.04 29.8997 16 27.0397L24 22.4196L29.96 18.9996V19.0006C29.98 18.9806 29.98 18.9606 30 18.9606L56 3.96059ZM67.8037 107.767C65.3949 108.618 62.7686 108.638 60.3506 107.823L60.3467 107.822C62.7659 108.644 65.3934 108.624 67.8037 107.767ZM24.0068 80.8815C24.138 84.8144 26.2904 88.4238 29.7197 90.4L39.3975 95.984L29.7139 90.3932C26.3991 88.4788 24.2776 85.0443 24.0254 81.2575L24.0068 80.8815ZM103.993 80.8776C103.862 84.8136 101.711 88.415 98.2861 90.3932L88.6094 95.9801L98.2803 90.4C101.82 88.36 104 84.5796 104 80.4996L103.993 80.8776ZM114.24 46.8297C117.301 48.6917 119.345 51.809 119.868 55.3024C119.373 51.8703 117.378 48.7979 114.396 46.9205L114.24 46.8297ZM24.2588 45.0885C24.0893 45.8727 24 46.6805 24 47.5006V47.5036C24 46.682 24.0892 45.8733 24.2588 45.0885ZM98.2861 37.6061C101.822 39.6481 104 43.4197 104 47.5036V47.4996C104 43.4386 101.84 39.6751 98.3291 37.6286L98.2803 37.6002L90.915 33.3502L98.2861 37.6061ZM25.0898 42.6334C24.7781 43.2953 24.5293 43.9881 24.3486 44.7028C24.5293 43.9879 24.7781 43.2951 25.0898 42.6334ZM29.7197 37.6002C27.7785 38.719 26.2478 40.3619 25.2598 42.2897C26.2469 40.3646 27.7759 38.7253 29.7139 37.6061L37.085 33.3502L29.7197 37.6002ZM26.4482 22.0807V22.0817V22.0807ZM27.7471 20.6393V20.6403V20.6393ZM66.8887 19.9489C64.9951 19.4508 63.0039 19.4507 61.1104 19.9489C63.0038 19.454 64.9952 19.4542 66.8887 19.9489Z" fill="url(#paint0_linear_3524_125)"/>
</mask>
<g mask="url(#mask0_3524_125)">
<path d="M98.286 37.606L69.714 21.11C66.178 19.068 61.822 19.068 58.286 21.11L29.714 37.606C26.178 39.648 24 43.42 24 47.504V80.496C24 84.58 26.178 88.352 29.714 90.394L58.286 106.89C61.822 108.932 66.178 108.932 69.714 106.89L98.286 90.394C101.822 88.352 104 84.58 104 80.496V47.504C104 43.42 101.822 39.648 98.286 37.606Z" fill="#9529C2"/>
<path d="M30 56V48C30 43.588 33.588 40 38 40C41.79 40 45.086 42.692 45.84 46.402C46.17 48.026 45.122 49.61 43.498 49.94C41.874 50.274 40.292 49.224 39.96 47.598C39.772 46.672 38.948 46 38 46C36.898 46 36 46.898 36 48V56C36 57.102 36.898 58 38 58C38.948 58 39.772 57.328 39.96 56.402C40.29 54.778 41.874 53.732 43.498 54.06C45.122 54.39 46.17 55.974 45.84 57.598C45.086 61.308 41.79 64 38 64C33.588 64 30 60.412 30 56ZM60 70C60.948 70 61.772 70.672 61.96 71.598C62.29 73.222 63.86 74.274 65.498 73.94C67.122 73.61 68.17 72.028 67.84 70.402C67.086 66.694 63.788 64 60 64C55.588 64 52 67.588 52 72V80C52 84.412 55.588 88 60 88C63.79 88 67.086 85.306 67.84 81.598C68.17 79.974 67.122 78.39 65.498 78.06C63.884 77.73 62.292 78.778 61.96 80.402C61.772 81.328 60.948 82 60 82C58.898 82 58 81.104 58 80V72C58 70.896 58.898 70 60 70ZM66.122 46.878C64.95 45.706 63.052 45.706 61.88 46.878L31.88 76.878C30.708 78.05 30.708 79.948 31.88 81.12C32.466 81.706 33.234 81.998 34.002 81.998C34.77 81.998 35.538 81.706 36.124 81.12L66.124 51.12C67.296 49.95 67.294 48.048 66.122 46.878ZM82 73H80V71C80 69.344 78.658 68 77 68C75.342 68 74 69.344 74 71V73H72C70.342 73 69 74.344 69 76C69 77.656 70.342 79 72 79H74V81C74 82.656 75.342 84 77 84C78.658 84 80 82.656 80 81V79H82C83.658 79 85 77.656 85 76C85 74.344 83.658 73 82 73ZM99 73H97V71C97 69.344 95.658 68 94 68C92.342 68 91 69.344 91 71V73H89C87.342 73 86 74.344 86 76C86 77.656 87.342 79 89 79H91V81C91 82.656 92.342 84 94 84C95.658 84 97 82.656 97 81V79H99C100.658 79 102 77.656 102 76C102 74.344 100.658 73 99 73Z" fill="white"/>
<path d="M114.008 46.694L98.28 37.6C101.82 39.64 104 43.42 104 47.5V80.5C104 84.58 101.82 88.36 98.28 90.4L69.72 106.88L54 115.964V115.96C50.296 118.1 45.736 118.122 42.05 115.978L47.992 119.43L48.05 119.434L56.002 124.038C60.962 126.898 67.042 126.898 72.002 124.038L112.002 100.958C116.962 98.098 120.002 92.818 120.002 87.098V57.08C120.002 52.796 117.718 48.836 114.01 46.692L114.008 46.694Z" fill="url(#paint1_linear_3524_125)"/>
<g filter="url(#filter0_d_3524_125)">
<path d="M120 50.128V40.9C120 35.18 116.96 29.9 112 27.04L72 3.96C67.04 1.1 60.96 1.1 56 3.96L30 18.96C29.98 18.96 29.98 18.98 29.96 19C26.26 21.12 24 25.08 24 29.36V47.5C24 43.42 26.18 39.64 29.72 37.6L58.28 21.12C61.82 19.06 66.18 19.06 69.72 21.12L98.28 37.6L114.396 46.92C117.868 49.106 120.004 52.912 119.99 57.02L120.008 50.148L120 50.128Z" fill="url(#paint2_linear_3524_125)"/>
</g>
<path d="M58.28 106.88L29.72 90.4C26.18 88.36 24 84.58 24 80.5V29.36C24 25.08 26.26 21.12 29.96 19L24 22.42L16 27.04C11.04 29.9 8 35.18 8 40.9V87.12C8 92.82 11.06 98.1 16 100.96L42.02 115.96C45.74 118.1 50.3 118.1 54.02 115.96L69.72 106.88C66.18 108.94 61.82 108.94 58.28 106.88Z" fill="#D373FC"/>
</g>
<defs>
<filter id="filter0_d_3524_125" x="13.3333" y="-6.185" width="117.341" height="76.5383" filterUnits="userSpaceOnUse" color-interpolation-filters="sRGB">
<feFlood flood-opacity="0" result="BackgroundImageFix"/>
<feColorMatrix in="SourceAlpha" type="matrix" values="0 0 0 0 0 0 0 0 0 0 0 0 0 0 0 0 0 0 127 0" result="hardAlpha"/>
<feOffset dy="2.66667"/>
<feGaussianBlur stdDeviation="5.33333"/>
<feColorMatrix type="matrix" values="0 0 0 0 0 0 0 0 0 0 0 0 0 0 0 0 0 0 0.32 0"/>
<feBlend mode="normal" in2="BackgroundImageFix" result="effect1_dropShadow_3524_125"/>
<feBlend mode="normal" in="SourceGraphic" in2="effect1_dropShadow_3524_125" result="shape"/>
</filter>
<linearGradient id="paint0_linear_3524_125" x1="32.0006" y1="7.56579" x2="124.544" y2="85.9969" gradientUnits="userSpaceOnUse">
<stop stop-color="#D6CDF5"/>
<stop offset="1" stop-color="#B9AAEE"/>
</linearGradient>
<linearGradient id="paint1_linear_3524_125" x1="68" y1="126" x2="126" y2="55" gradientUnits="userSpaceOnUse">
<stop stop-color="#A931D8"/>
<stop offset="1" stop-color="#BB45EA"/>
</linearGradient>
<linearGradient id="paint2_linear_3524_125" x1="32.0007" y1="7.56568" x2="124.544" y2="85.9971" gradientUnits="userSpaceOnUse">
<stop stop-color="#EBC7FA"/>
<stop offset="1" stop-color="#E4A7FE"/>
</linearGradient>
</defs>
</svg>
